<?xml version="1.0" encoding="UTF-8"?>
<!DOCTYPE svg PUBLIC "-//W3C//DTD SVG 1.1//EN" "http://www.w3.org/Graphics/SVG/1.1/DTD/svg11.dtd">
<!-- Creator: CorelDRAW -->
<svg xmlns="http://www.w3.org/2000/svg" xml:space="preserve" width="1.70666in" height="1.70666in" version="1.1" style="shape-rendering:geometricPrecision; text-rendering:geometricPrecision; image-rendering:optimizeQuality; fill-rule:evenodd; clip-rule:evenodd"
viewBox="0 0 1706.66 1706.66"
 xmlns:xlink="http://www.w3.org/1999/xlink"
 xmlns:xodm="http://www.corel.com/coreldraw/odm/2003">
 <defs>
  <style type="text/css">
   <![CDATA[
    .str0 {stroke:#FA3C48;stroke-width:3;stroke-miterlimit:2.61313}
    .fil0 {fill:black}
    .fil1 {fill:#FA3C48}
    .fil2 {fill:#FF9621}
    .fil3 {fill:#FFB800}
   ]]>
  </style>
 </defs>
 <g id="Layer_x0020_1">
  <metadata id="CorelCorpID_0Corel-Layer"/>
  <path class="fil0" d="M285.08 1195.49c-8.37,0 -16.17,-5.29 -18.97,-13.65l-159.24 -475.58c-8.35,-24.97 29.57,-37.68 37.94,-12.69l159.23 475.57c4.35,12.99 -5.43,26.36 -18.96,26.36zm1136.49 0c-13.54,0 -23.32,-13.34 -18.96,-26.35l159.24 -475.57c8.37,-25 46.28,-12.26 37.91,12.69l-159.24 475.57c-2.79,8.36 -10.58,13.65 -18.96,13.65zm-312.23 -275.66c-7.55,0 -14.44,-4.22 -17.85,-10.98l-224.16 -443.93c-11.86,-23.51 23.83,-41.56 35.71,-18.03l214.79 425.35 408.57 -226.98c23.01,-12.79 42.45,22.18 19.42,34.98l-426.76 237.09c-3,1.67 -6.35,2.52 -9.71,2.52zm-512.04 0c-3.36,0 -6.71,-0.86 -9.71,-2.53l-426.75 -237.07c-23.02,-12.78 -3.6,-47.78 19.42,-34.98l408.56 226.98 214.78 -425.35c11.87,-23.52 47.59,-5.48 35.72,18.03l-224.16 443.93c-3.41,6.74 -10.31,10.98 -17.86,10.98z"/>
  <path class="fil0" d="M1400.47 1424.83l-1094.3 0c-55.32,0 -100.32,-45.01 -100.32,-100.33l0 -71.53c0,-55.3 45,-100.33 100.32,-100.33l1094.3 0c55.31,0 100.33,45.01 100.33,100.33l0 71.52c0,55.31 -45.01,100.33 -100.33,100.33zm-1094.3 -232.15c-33.26,0 -60.32,27.06 -60.32,60.32l0 71.52c0,33.26 27.06,60.32 60.32,60.32l1094.3 -0c33.26,0 60.32,-27.06 60.32,-60.32l0 -71.53c0,-33.26 -27.06,-60.31 -60.32,-60.31l-1094.3 0z"/>
  <path class="fil0" d="M1317.28 804.24c-7.29,0 -14.33,-4.02 -17.86,-10.99l-81.89 -161.93c-11.87,-23.51 23.82,-41.53 35.71,-18.06l81.89 161.93c6.78,13.41 -3.2,29.04 -17.84,29.04zm-307.06 -80.73c-19.4,0 -27.51,-25.16 -11.48,-36.38l144.83 -101.37c21.51,-15.05 44.43,17.73 22.94,32.77l-144.83 101.37c-3.5,2.44 -7.5,3.61 -11.46,3.61z"/>
  <path class="fil0" d="M390.6 804.24c-14.64,0 -24.62,-15.6 -17.83,-29.03l81.89 -161.93c11.91,-23.52 47.57,-5.42 35.7,18.06l-81.89 161.93c-3.53,6.96 -10.57,10.97 -17.86,10.97zm307.06 -80.73c-3.96,0 -7.96,-1.17 -11.44,-3.61l-144.83 -101.37c-21.48,-15.05 1.44,-47.78 22.93,-32.77l144.83 101.37c16,11.21 7.94,36.38 -11.49,36.38z"/>
  <path class="fil0" d="M853.32 482.47c-55.3,0 -100.31,-45 -100.31,-100.31 0,-55.31 45,-100.32 100.31,-100.32 55.32,0 100.33,45 100.33,100.32 0,55.31 -45.03,100.31 -100.33,100.31zm0 -160.63c-79.39,0 -79.39,120.64 0,120.64 79.39,0 79.39,-120.64 0,-120.64z"/>
  <path class="fil0" d="M1606.31 724.05c-55.31,0 -100.32,-45 -100.32,-100.31 0,-55.32 45,-100.32 100.32,-100.32 55.31,0 100.33,45 100.33,100.32 0,55.31 -45.03,100.31 -100.33,100.31zm0 -160.63c-79.37,0 -79.37,120.63 0,120.63 79.4,0 79.38,-120.63 0,-120.63z"/>
  <path class="fil0" d="M100.33 724.05c-55.31,0 -100.32,-45 -100.32,-100.31 0,-55.32 45,-100.32 100.32,-100.32 55.31,0 100.31,45 100.31,100.32 0,55.31 -45,100.31 -100.31,100.31zm0 -160.63c-79.39,0 -79.39,120.63 0,120.63 79.39,0 79.39,-120.63 0,-120.63z"/>
  <path class="fil0" d="M501.04 649.11c-109.54,0 -109.54,-166.46 0,-166.46 109.55,0 109.55,166.46 0,166.46zm0 -126.47c-56.91,0 -56.9,86.46 0,86.46 56.9,0 56.91,-86.46 0,-86.46z"/>
  <path class="fil0" d="M1206.83 649.11c-109.55,0 -109.55,-166.46 0,-166.46 109.56,0 109.57,166.46 0,166.46zm0 -126.47c-56.9,0 -56.88,86.46 0,86.46 56.89,0 56.91,-86.46 0,-86.46z"/>
  <path class="fil0" d="M853.32 1088.66c-6.36,0 -12.36,-3.04 -16.13,-8.18l-121.58 -165.67c-5.17,-7.04 -5.17,-16.61 0,-23.65l121.58 -165.67c7.54,-10.26 24.71,-10.26 32.25,0l121.58 165.67c5.17,7.04 5.17,16.61 0,23.65l-121.58 165.67c-3.76,5.15 -9.76,8.18 -16.13,8.18zm-96.77 -185.67l96.77 131.86 96.78 -131.86 -96.78 -131.85 -96.77 131.85z"/>
  <path class="fil0" d="M1300.1 1076.12c-95.71,0 -95.67,-145.43 0,-145.43 95.69,0 95.72,145.43 0,145.43zm0 -105.43c-43.03,0 -43.03,65.4 0,65.4 43.05,0 43.04,-65.4 0,-65.4z"/>
  <path class="fil0" d="M406.54 1076.12c-95.7,0 -95.67,-145.43 0,-145.43 95.67,0 95.71,145.43 0,145.43zm0 -105.43c-43.04,0 -43.05,65.4 0,65.4 43.05,0 43.04,-65.4 0,-65.4z"/>
  <path class="fil0" d="M361.28 1340.48c-28.25,0 -20,-42.94 -20,-83.48 0,-26.33 40,-26.32 40,0 0,40.61 8.25,83.48 -20,83.48z"/>
  <path class="fil0" d="M525.31 1340.48c-28.24,0 -20,-42.94 -20,-83.48 0,-26.33 40,-26.32 40,0 0,40.57 8.25,83.48 -20,83.48z"/>
  <path class="fil0" d="M689.31 1340.48c-28.25,0 -20,-42.94 -20,-83.48 0,-26.33 40,-26.32 40,0 0,40.58 8.25,83.48 -20,83.48z"/>
  <path class="fil0" d="M853.32 1340.48c-28.24,0 -20,-42.94 -20,-83.48 0,-26.33 40,-26.32 40,0 0,40.57 8.25,83.48 -20,83.48z"/>
  <path class="fil0" d="M1017.35 1340.48c-28.25,0 -20,-42.94 -20,-83.48 0,-26.33 40,-26.32 40,0 0,40.55 8.24,83.48 -20,83.48z"/>
  <path class="fil0" d="M1181.35 1340.48c-28.24,0 -20,-42.94 -20,-83.48 0,-26.33 40,-26.32 40,0 0,40.61 8.25,83.48 -20,83.48z"/>
  <path class="fil0" d="M1345.37 1340.48c-28.24,0 -20,-42.94 -20,-83.48 0,-26.33 40,-26.32 40,0 0,40.57 8.25,83.48 -20,83.48z"/>
  <path class="fil1" d="M853.32 442.48c7.96,0 15.11,-1.21 21.48,-3.39 1.96,-1.19 4.12,-2.08 6.34,-2.62 50.12,-24.38 40.85,-114.63 -27.82,-114.63 -68.67,0 -77.94,90.28 -27.8,114.64 2.22,0.54 4.36,1.43 6.33,2.61 6.36,2.18 13.52,3.39 21.48,3.39z"/>
  <path class="fil1" d="M501.04 609.1c56.9,0 56.91,-86.46 0,-86.46 -48.09,0 -55.54,61.76 -22.34,80.89 1.66,0.58 3.26,1.36 4.74,2.31 5.09,2.08 10.96,3.26 17.6,3.26z"/>
  <path class="fil1 str0" d="M122.51 680.41c56.35,-20.13 48.96,-117 -22.18,-117 -79.39,0 -79.39,120.63 0,120.63 6.29,0 12.09,-0.76 17.38,-2.15 1.54,-0.67 3.15,-1.17 4.8,-1.48z"/>
  <path class="fil1" d="M1206.83 522.64c-56.9,0 -56.88,86.46 0,86.46 6.66,0 12.55,-1.19 17.65,-3.28 1.46,-0.93 3.02,-1.7 4.65,-2.28 33.23,-19.1 25.81,-80.91 -22.3,-80.91z"/>
  <path class="fil1" d="M1606.31 563.41c-71.14,0 -78.52,96.91 -22.13,117.01 1.61,0.31 3.2,0.8 4.71,1.46 5.31,1.41 11.11,2.17 17.42,2.17 79.4,0 79.38,-120.63 0,-120.63z"/>
  <path class="fil2" d="M1290.78 776.15l-65.15 -128.82c-5.86,1.16 -12.13,1.78 -18.8,1.78 -23.63,0 -42.16,-7.74 -55.59,-19.89l-115.35 80.74 81.94 162.28 172.94 -96.08z"/>
  <path class="fil3" d="M1091.5 908.85l-216.49 -428.74c-6.98,1.54 -14.24,2.36 -21.68,2.36 -7.44,0 -14.69,-0.81 -21.67,-2.36l-114.21 226.19c-0.66,4.37 -2.7,8.51 -5.88,11.64l-96.4 190.91c-3.41,6.74 -10.31,10.98 -17.86,10.98 -3.36,0 -6.71,-0.86 -9.71,-2.53l-411.08 -228.37c-7.37,8.59 -16.16,15.93 -26.01,21.64l148.11 442.35c2.5,-0.19 5.02,-0.28 7.56,-0.28l1094.3 0c2.55,0 5.07,0.09 7.57,0.28l148.11 -442.34c-9.85,-5.71 -18.65,-13.05 -26.02,-21.65l-411.09 228.38c-3,1.67 -6.35,2.52 -9.71,2.52 -7.55,0 -14.44,-4.22 -17.85,-10.98zm-222.05 -183.35l121.58 165.67c5.17,7.04 5.17,16.61 0,23.65l-121.58 165.67c-3.76,5.15 -9.76,8.18 -16.13,8.18 -6.36,0 -12.36,-3.04 -16.13,-8.18l-121.58 -165.67c-5.17,-7.04 -5.17,-16.61 0,-23.65l121.58 -165.67c7.54,-10.26 24.71,-10.26 32.25,0zm-462.91 205.2c95.67,0 95.71,145.43 0,145.43 -95.7,0 -95.67,-145.43 0,-145.43zm893.56 145.43c-95.71,0 -95.67,-145.43 0,-145.43 95.69,0 95.72,145.43 0,145.43z"/>
  <path class="fil2" d="M671.09 709.31l-114.44 -80.1c-13.44,12.15 -31.97,19.9 -55.61,19.9 -6.66,0 -12.92,-0.61 -18.77,-1.77l-65.42 129.35 171.97 95.54 82.27 -162.93z"/>
  <polygon class="fil1" points="853.32,771.14 756.55,903 853.32,1034.86 950.1,903 "/>
  <path class="fil1" d="M1300.1 970.69c-43.03,0 -43.03,65.4 0,65.4 43.05,0 43.04,-65.4 0,-65.4z"/>
  <path class="fil1" d="M406.54 1036.09c43.05,0 43.04,-65.4 0,-65.4 -43.04,0 -43.05,65.4 0,65.4z"/>
  <path class="fil2" d="M1400.47 1192.67l-1094.3 0c-5.3,0 -10.44,0.69 -15.3,1.96 -0.35,0.11 -0.71,0.2 -1.07,0.3 -25.33,7.15 -43.95,30.47 -43.95,58.06l0 71.52c0,33.26 27.06,60.32 60.32,60.32l1094.3 -0c33.26,0 60.32,-27.06 60.32,-60.32l0 -71.53c0,-27.55 -18.56,-50.83 -43.82,-58.02 -0.44,-0.1 -0.88,-0.22 -1.31,-0.36 -4.85,-1.26 -9.94,-1.93 -15.19,-1.93zm-383.13 147.81c-28.25,0 -20,-42.94 -20,-83.48 0,-26.33 40,-26.32 40,0 0,40.55 8.24,83.48 -20,83.48zm164.01 0c-28.24,0 -20,-42.94 -20,-83.48 0,-26.33 40,-26.32 40,0 0,40.61 8.25,83.48 -20,83.48zm164.01 0c-28.24,0 -20,-42.94 -20,-83.48 0,-26.33 40,-26.32 40,0 0,40.57 8.25,83.48 -20,83.48zm-492.04 0c-28.24,0 -20,-42.94 -20,-83.48 0,-26.33 40,-26.32 40,0 0,40.57 8.25,83.48 -20,83.48zm-144.01 -83.48c0,40.58 8.25,83.48 -20,83.48 -28.25,0 -20,-42.94 -20,-83.48 0,-26.33 40,-26.32 40,0zm-164 0c0,40.57 8.25,83.48 -20,83.48 -28.24,0 -20,-42.94 -20,-83.48 0,-26.33 40,-26.32 40,0zm-164.03 0c0,40.61 8.25,83.48 -20,83.48 -28.25,0 -20,-42.94 -20,-83.48 0,-26.33 40,-26.32 40,0z"/>
 </g>
</svg>
